<?xml version="1.0" standalone="no"?>
<!DOCTYPE svg PUBLIC "-//W3C//DTD SVG 20010904//EN"
 "http://www.w3.org/TR/2001/REC-SVG-20010904/DTD/svg10.dtd">
<svg version="1.0" xmlns="http://www.w3.org/2000/svg"
 width="194.000000pt" height="260.000000pt" viewBox="0 0 194.000000 260.000000"
 preserveAspectRatio="xMidYMid meet">

<g transform="translate(0.000000,260.000000) scale(0.100000,-0.100000)"
fill="#000000" stroke="none">
<path d="M753 2387 c-28 -12 -36 -33 -23 -58 12 -22 25 -23 69 -8 33 12 39 26
19 51 -18 22 -40 27 -65 15z"/>
<path d="M1111 2303 c0 -5 13 -18 30 -31 28 -23 29 -23 29 -3 0 11 -9 25 -19
31 -23 12 -41 13 -40 3z"/>
<path d="M874 2261 c-48 -12 -112 -52 -118 -73 -12 -48 53 -104 105 -91 29 8
91 43 101 58 11 15 10 73 -2 96 -11 20 -33 22 -86 10z m40 -77 c16 -15 22 -44
10 -44 -3 0 -15 10 -26 23 -11 12 -17 17 -14 12 2 -6 -4 -16 -14 -23 -24 -15
-36 11 -14 33 20 19 38 19 58 -1z"/>
<path d="M1073 2218 c-6 -7 -16 -30 -23 -51 -11 -34 -10 -40 12 -66 13 -17 31
-41 41 -55 21 -31 61 -43 82 -26 31 25 11 145 -30 186 -26 26 -67 32 -82 12z
m51 -77 c23 -25 17 -55 -12 -59 -17 -3 -20 0 -15 14 4 10 0 22 -11 30 -19 13
-14 34 8 34 7 0 21 -9 30 -19z"/>
<path d="M573 2118 c-14 -18 -53 -114 -69 -168 -11 -37 -32 -65 -103 -134
-112 -110 -143 -167 -143 -263 0 -53 6 -86 30 -147 84 -216 216 -346 351 -346
43 0 154 20 161 30 3 3 34 21 70 39 52 27 77 33 125 33 60 0 187 -29 280 -65
93 -36 124 -42 143 -30 9 6 16 15 15 20 -1 5 25 27 57 47 92 59 155 160 151
241 -8 174 -142 370 -310 454 -62 32 -81 46 -81 62 0 11 -4 18 -9 14 -6 -3
-13 1 -18 9 -5 9 -19 12 -41 9 -27 -5 -31 -8 -20 -20 9 -11 9 -16 -3 -24 -12
-7 -11 -9 3 -9 11 0 15 -6 11 -21 -3 -12 -11 -18 -19 -15 -8 3 -14 2 -14 -3 0
-12 -69 -40 -124 -50 -64 -12 -140 8 -215 54 -134 83 -206 177 -214 276 -2 22
-2 23 -14 7z"/>
<path d="M930 2080 c-19 -12 2 -52 36 -71 13 -7 24 -19 24 -27 0 -18 -46 -8
-72 15 -10 9 -18 13 -18 8 0 -21 87 -65 129 -65 15 0 37 9 48 19 12 11 24 17
27 14 3 -4 6 -2 6 4 0 18 -12 22 -36 13 l-24 -10 22 30 c26 35 22 41 -30 45
-22 2 -53 10 -69 18 -18 10 -35 12 -43 7z m96 -105 c-11 -8 -22 -12 -25 -9 -6
6 19 24 34 24 6 -1 1 -7 -9 -15z"/>
<path d="M1085 1949 c-10 -15 1 -23 20 -15 9 3 13 10 10 16 -8 13 -22 13 -30
-1z"/>
<path d="M1040 1920 c0 -5 6 -10 14 -10 8 0 18 5 21 10 3 6 -3 10 -14 10 -12
0 -21 -4 -21 -10z"/>
<path d="M1075 1906 c-11 -7 -33 -17 -50 -21 l-30 -8 25 -7 c14 -5 18 -8 9 -9
-9 -1 -30 -8 -45 -16 -27 -14 -27 -15 -6 -15 12 0 22 4 22 8 0 5 23 15 50 22
34 9 49 18 46 27 -3 7 1 13 9 13 8 0 15 5 15 10 0 14 -22 12 -45 -4z"/>
<path d="M1494 845 c-8 -19 -85 -66 -159 -95 -73 -29 -73 -29 -56 -39 11 -7 9
-12 -9 -21 -21 -11 -22 -11 -17 10 6 23 3 24 -80 6 -20 -4 -28 -16 -10 -16 24
0 21 -15 -3 -17 -11 -1 -20 4 -20 13 0 16 -12 17 -60 8 -18 -4 -27 -10 -20
-14 8 -5 7 -9 -4 -13 -10 -4 -16 -1 -16 8 0 20 -73 20 -94 0 -8 -8 -17 -15
-20 -15 -3 0 -3 7 0 15 5 12 -2 15 -30 15 -25 0 -36 -4 -36 -15 0 -9 -10 -15
-26 -15 -18 0 -25 4 -21 14 4 9 -4 16 -25 20 -33 6 -52 0 -43 -15 4 -5 -5 -9
-20 -9 -15 0 -28 7 -32 18 -12 32 -53 45 -53 17 0 -13 -4 -14 -20 -5 -11 6
-20 17 -20 24 0 20 -27 27 -34 10 -3 -9 -10 -13 -15 -9 -6 3 -8 12 -5 19 3 7
-1 16 -10 19 -8 3 -17 -1 -20 -8 -12 -32 156 -93 376 -137 15 -3 15 -5 1 -23
-11 -14 -17 -16 -20 -7 -5 13 -39 17 -46 5 -2 -5 -2 -2 0 5 2 8 -4 12 -15 10
-9 -2 -16 -10 -14 -16 1 -7 -4 -12 -10 -12 -9 0 -8 -4 2 -10 12 -8 11 -10 -6
-10 -12 0 -38 -16 -58 -35 -21 -19 -42 -35 -47 -35 -5 0 -9 -6 -9 -14 0 -8
-11 -17 -25 -20 -14 -4 -23 -11 -20 -16 3 -5 12 -7 20 -3 8 3 15 1 15 -5 0
-18 -41 -21 -88 -5 -60 20 -62 22 -66 67 -4 49 -11 53 -26 16 -14 -34 -18 -35
-47 -15 -19 13 -21 13 -27 -8 -13 -50 -6 -88 21 -114 28 -26 138 -83 161 -83
6 0 12 -5 12 -10 0 -10 -32 -6 -78 11 -35 13 -40 10 -12 -7 l25 -15 -30 6 -30
6 35 -23 c21 -14 36 -33 39 -48 3 -24 2 -24 -16 -8 -26 23 -39 23 -57 -3 -18
-27 -46 -19 -47 13 -1 19 -3 18 -9 -7 -4 -16 -8 -22 -9 -12 -1 21 -27 22 -48
2 -24 -24 -8 -43 43 -51 58 -8 192 1 258 18 64 17 73 38 17 38 -51 0 -55 22
-10 46 18 9 64 45 103 80 39 35 82 73 95 85 29 26 72 39 127 39 46 0 54 -7
118 -101 23 -35 61 -77 83 -94 45 -32 52 -49 26 -59 -13 -5 -14 -9 -4 -19 13
-13 313 -18 327 -5 4 4 2 22 -3 40 -6 18 -11 26 -12 17 -1 -21 -38 -31 -45
-13 -7 19 -35 18 -42 -1 -5 -12 -22 -15 -81 -13 -67 1 -73 3 -57 15 11 8 18
19 16 24 -1 5 3 9 10 9 15 0 128 53 128 61 0 3 -15 4 -32 1 -32 -4 -32 -3 -13
12 11 8 25 16 32 16 18 0 31 30 39 88 6 50 0 63 -21 43 -14 -13 -123 -51 -143
-50 -9 0 -3 6 14 12 17 7 42 20 55 30 l24 18 -25 -3 c-50 -7 -70 53 -27 79 8
4 19 18 26 31 6 12 21 22 32 22 11 0 22 8 25 18 9 27 34 85 45 105 5 10 7 35
5 55 -4 26 -3 30 2 12 7 -22 9 -23 15 -7 10 28 8 67 -3 67 -6 0 -13 -7 -16
-15z m-53 -98 c-8 -8 -11 -7 -11 4 0 20 13 34 18 19 3 -7 -1 -17 -7 -23z m-65
-22 c-11 -8 -22 -12 -25 -9 -6 6 19 24 34 24 6 -1 1 -7 -9 -15z m-16 -445 c-8
-6 -24 -9 -35 -9 l-20 1 20 5 c11 3 24 9 29 14 5 5 12 6 15 3 3 -3 -1 -9 -9
-14z"/>
<path d="M440 816 c0 -8 5 -18 10 -21 6 -3 10 1 10 9 0 8 -4 18 -10 21 -5 3
-10 -1 -10 -9z"/>
<path d="M475 789 c-4 -6 0 -18 9 -27 15 -15 16 -15 16 5 0 25 -15 38 -25 22z"/>
<path d="M1467 654 c-4 -4 -7 -14 -7 -23 0 -11 3 -12 11 -4 6 6 10 16 7 23 -2
6 -7 8 -11 4z"/>
<path d="M690 536 c0 -2 7 -7 16 -10 8 -3 12 -2 9 4 -6 10 -25 14 -25 6z"/>
<path d="M1470 286 c0 -2 7 -6 15 -10 8 -3 15 -1 15 4 0 6 -7 10 -15 10 -8 0
-15 -2 -15 -4z"/>
<path d="M1421 271 c-10 -7 -7 -9 12 -8 14 1 23 5 20 10 -6 9 -15 9 -32 -2z"/>
</g>
</svg>
